<?xml version="1.0" encoding="UTF-8"?>
<svg width="400" height="400" viewBox="0 0 400 400" xmlns="http://www.w3.org/2000/svg">
  <!-- Left Character (Giver) -->
  <g transform="translate(100, 100)">
    <!-- Body -->
    <path d="M30,100 L70,100 L65,200 L35,200 Z" fill="#FFE0BD"/>
    <!-- Outfit -->
    <path d="M35,100 L65,100 L62,190 L38,190 Z" fill="#FF69B4"/>
    <!-- Head -->
    <circle cx="50" cy="60" r="30" fill="#FFE0BD"/>
    <!-- Hair -->
    <path d="M50,40 C30,40 20,50 20,70 C20,90 30,100 50,100 C70,100 80,90 80,70 C80,50 70,40 50,40" fill="#8B4513"/>
    <!-- Face -->
    <circle cx="40" cy="55" r="3" fill="#000000"/>
    <circle cx="60" cy="55" r="3" fill="#000000"/>
    <path d="M40,70 Q50,75 60,70" stroke="#000000" stroke-width="2" fill="none"/>
  </g>

  <!-- Right Character (Receiver) -->
  <g transform="translate(230, 100)">
    <!-- Body -->
    <path d="M30,100 L70,100 L65,200 L35,200 Z" fill="#FFE0BD"/>
    <!-- Outfit -->
    <path d="M35,100 L65,100 L62,190 L38,190 Z" fill="#4169E1"/>
    <!-- Head -->
    <circle cx="50" cy="60" r="30" fill="#FFE0BD"/>
    <!-- Hair -->
    <path d="M50,40 C30,40 20,50 20,70 C20,90 30,100 50,100 C70,100 80,90 80,70 C80,50 70,40 50,40" fill="#2B1700"/>
    <!-- Face -->
    <circle cx="40" cy="55" r="3" fill="#000000"/>
    <circle cx="60" cy="55" r="3" fill="#000000"/>
    <path d="M40,70 Q50,75 60,70" stroke="#000000" stroke-width="2" fill="none"/>
  </g>

  <!-- Heart Between -->
  <path d="M200,150 C180,130 150,130 150,160 C150,180 180,200 200,220 C220,200 250,180 250,160 C250,130 220,130 200,150" fill="#E53E3E"/>
</svg> 