<?xml version="1.0" encoding="UTF-8"?>
<svg width="100" height="100" viewBox="0 0 100 100" xmlns="http://www.w3.org/2000/svg">
  <!-- Curly Bob Hair -->
  <path 
    d="M30 35
       C 35 30, 45 28, 50 28
       C 55 28, 65 30, 70 35
       C 72 40, 73 45, 72 50
       C 70 48, 68 50, 67 52
       C 65 50, 63 52, 62 54
       C 60 52, 58 54, 57 56
       C 55 54, 53 56, 52 58
       C 50 56, 48 58, 47 56
       C 45 54, 43 56, 42 54
       C 40 52, 38 54, 37 52
       C 35 50, 33 52, 32 50
       C 30 45, 28 40, 30 35
       Z" 
    fill="currentColor"
  />
</svg> 